# xmcd CD database file
#
# Track frame offsets:
#	150
#	11977
#	30967
#	53242
#	78766
#	94496
#	105161
#	127948
#	147765
#	157879
#	164542
#	182522
#	189293
#	200049
#	213037
#
# Disc length: 3092 seconds
#
# Revision: 0
# Processed by: cddbd v1.5.2PL0 Copyright (c) Steve Scherf et al.
# Submitted via: CDex 1.51
#
DISCID=b60c120f
DTITLE=Catherine Russel - In Concert
DYEAR=2012
DGENRE=Blues
TTITLE0=Catherine Russell - This Joint Is Jumpin
TTITLE1=Catherine Russell - Back O' Town Blues
TTITLE2=Catherine Russell - New Orleans
TTITLE3=Catherine Russell - Darn that Dream
TTITLE4=Catherine Russell - Kitchen Man
TTITLE5=Catherine Russell - So Little Time (So Much To Do)
TTITLE6=Catherine Russell - Broken Nose
TTITLE7=Catherine Russell - Luci
TTITLE8=Catherine Russell - Under the Spell of the Blues
TTITLE9=Catherine Russell - Wake Up and Live
TTITLE10=Catherine Russell - Romance in the Dark
TTITLE11=Catherine Russell - Nowhere To Run
TTITLE12=Catherine Russell - Inside this Heart of Mine
TTITLE13=Catherine Russell - Everything's Been Done Before
TTITLE14=Catherine Russell - Romance in The Dark
EXTD=YEAR: 2012
EXTT0=
EXTT1=
EXTT2=
EXTT3=
EXTT4=
EXTT5=
EXTT6=
EXTT7=
EXTT8=
EXTT9=
EXTT10=
EXTT11=
EXTT12=
EXTT13=
EXTT14=
PLAYORDER=
